<svg width="24" height="24" viewBox="0 0 24 24" fill="none" xmlns="http://www.w3.org/2000/svg">
<path d="M12 0C18.6265 0 24 5.37347 24 12C24 18.6265 18.6265 24 12 24C5.37347 24 0 18.6265 0 12C0 5.37347 5.37347 0 12 0Z" fill="#0033AD"/>
<path d="M8.33686 11.9798C8.30149 12.5811 8.76381 13.0964 9.36507 13.1293C9.38781 13.1293 9.40802 13.1293 9.43076 13.1293C10.0371 13.1293 10.5247 12.6417 10.5196 12.0354C10.5196 11.4291 10.032 10.9415 9.4257 10.9465C8.84718 10.944 8.36718 11.3987 8.33686 11.9798Z" fill="white"/>
<path d="M4.26423 11.6968C4.0697 11.6842 3.90044 11.8358 3.89286 12.0303C3.88528 12.2248 4.03181 12.3941 4.22633 12.4017C4.42086 12.4143 4.58507 12.2627 4.5977 12.0682C4.61033 11.8737 4.45875 11.7095 4.26423 11.6968Z" fill="white"/>
<path d="M8.26835 5.63874C8.44014 5.55285 8.51088 5.33558 8.42498 5.16379C8.33909 4.992 8.12182 4.92127 7.95003 5.00716C7.77824 5.09306 7.70751 5.30527 7.7934 5.47958C7.8793 5.65643 8.09151 5.72969 8.26835 5.63874C8.2633 5.63874 8.26835 5.63874 8.26835 5.63874Z" fill="white"/>
<path d="M9.37533 7.57138C9.64312 7.43748 9.75175 7.10906 9.61785 6.84127C9.48396 6.57348 9.15554 6.46485 8.88775 6.59874C8.61996 6.73264 8.51133 7.06106 8.64522 7.32885C8.77912 7.59917 9.10754 7.70527 9.37533 7.57138Z" fill="white"/>
<path d="M5.64878 8.90021C5.85594 9.0341 6.13384 8.97853 6.27026 8.77137C6.40415 8.56421 6.34857 8.28632 6.14142 8.14989C5.93426 8.016 5.65636 8.07158 5.51994 8.27874C5.381 8.4859 5.4391 8.76632 5.64878 8.90021Z" fill="white"/>
<path d="M6.31035 11.5023C6.0072 11.4846 5.75204 11.7145 5.73435 12.0177C5.71667 12.3208 5.94657 12.576 6.24972 12.5937C6.55288 12.6114 6.80804 12.3815 6.82572 12.0783C6.84088 11.7802 6.61099 11.52 6.31035 11.5023Z" fill="white"/>
<path d="M5.70704 15.1655C5.48725 15.2792 5.39631 15.5469 5.50746 15.7718C5.62115 15.9916 5.88894 16.0825 6.11378 15.9714C6.33357 15.8577 6.42452 15.5899 6.31336 15.365C6.2022 15.1453 5.92936 15.0543 5.70704 15.1655Z" fill="white"/>
<path d="M7.82697 10.3756C8.12508 10.5701 8.52424 10.4893 8.71371 10.1886C8.90824 9.89053 8.8274 9.49137 8.52676 9.3019C8.22866 9.10737 7.8295 9.18821 7.64003 9.48884C7.44803 9.7819 7.52887 10.1811 7.82697 10.3756Z" fill="white"/>
<path d="M14.5514 7.52842C14.8015 7.69263 15.1425 7.62442 15.3093 7.37179C15.4735 7.12169 15.4053 6.78063 15.1526 6.6139C14.9025 6.44969 14.5615 6.5179 14.3947 6.77053C14.228 7.02821 14.2962 7.36421 14.5514 7.52842Z" fill="white"/>
<path d="M15.668 5.6059C15.8322 5.71453 16.0494 5.66653 16.1555 5.50232C16.2642 5.33811 16.2162 5.12084 16.052 5.01474C15.8877 4.90611 15.6705 4.95411 15.5644 5.11326C15.4583 5.27748 15.5063 5.49726 15.668 5.6059Z" fill="white"/>
<path d="M14.6328 10.9364C14.0316 10.9011 13.5137 11.3634 13.4833 11.9646C13.448 12.5659 13.9103 13.0838 14.5116 13.1141C14.5343 13.1141 14.5545 13.1141 14.5722 13.1141C15.1735 13.1141 15.661 12.6265 15.661 12.0202C15.6661 11.4467 15.2139 10.9667 14.6328 10.9364Z" fill="white"/>
<path d="M9.73401 10.2973C9.92096 10.6636 10.2974 10.8985 10.7117 10.8985C11.313 10.8985 11.8005 10.4109 11.8005 9.80463C11.8005 9.63537 11.7626 9.46611 11.6843 9.312C11.4115 8.77137 10.7546 8.55411 10.2191 8.82695C9.67843 9.10232 9.46117 9.76169 9.73401 10.2973Z" fill="white"/>
<path d="M18.2906 8.90022C18.5104 8.78653 18.5988 8.51622 18.4851 8.2939C18.3739 8.07411 18.1011 7.98569 17.8788 8.09938C17.659 8.21306 17.5706 8.48085 17.6792 8.70064C17.7979 8.92043 18.0683 9.01138 18.2906 8.90022Z" fill="white"/>
<path d="M15.5246 9.24632C15.2089 9.40547 15.08 9.792 15.2392 10.1078C15.3983 10.4236 15.7849 10.5524 16.1006 10.3933C16.4164 10.2341 16.5453 9.84758 16.3861 9.53179C16.2244 9.216 15.8404 9.08968 15.5246 9.24632Z" fill="white"/>
<path d="M11.9572 5.44168C12.2048 5.45431 12.4145 5.26484 12.4322 5.01726C12.4499 4.76968 12.2553 4.56 12.0078 4.54231C11.7602 4.52968 11.5505 4.7141 11.5328 4.96168C11.5202 5.21179 11.7097 5.424 11.9572 5.44168Z" fill="white"/>
<path d="M11.9517 8.26358C12.3053 8.28632 12.6085 8.01348 12.6262 7.65727C12.6489 7.30358 12.3761 7.00042 12.0199 6.98274C11.6662 6.96 11.363 7.23284 11.3453 7.58905C11.3302 7.94527 11.598 8.2459 11.9517 8.26358Z" fill="white"/>
<path d="M8.47564 14.8194C8.79143 14.6602 8.92027 14.2737 8.76112 13.9579C8.60196 13.6421 8.21543 13.5133 7.89964 13.6724C7.58385 13.8316 7.45501 14.2181 7.61417 14.5339C7.77585 14.8497 8.15985 14.9785 8.47564 14.8194Z" fill="white"/>
<path d="M12.3691 9.20337C12.0407 9.70863 12.1797 10.3832 12.6849 10.7116C13.1902 11.04 13.8647 10.9011 14.1931 10.3958C14.5216 9.89053 14.3826 9.216 13.8774 8.88758C13.7005 8.77137 13.4934 8.71074 13.2811 8.71074C12.9123 8.71074 12.5713 8.89516 12.3691 9.20337Z" fill="white"/>
<path d="M14.2664 13.7684C13.9935 13.2278 13.3367 13.0105 12.8011 13.2834C12.2605 13.5562 12.0432 14.2131 12.316 14.7486C12.5889 15.2893 13.2457 15.5065 13.7813 15.2337C14.3169 14.9659 14.5392 14.3166 14.2689 13.776C14.2714 13.7735 14.2714 13.7735 14.2664 13.7684Z" fill="white"/>
<path d="M16.1731 13.6901C15.8749 13.4956 15.4758 13.5764 15.2863 13.877C15.0918 14.1751 15.1726 14.5743 15.4733 14.7638C15.7714 14.9583 16.1705 14.8775 16.36 14.5768C16.552 14.2838 16.4712 13.8846 16.1731 13.6901Z" fill="white"/>
<path d="M18.2652 12.0531C18.2829 11.7499 18.053 11.4947 17.7498 11.4771C17.4466 11.4594 17.1915 11.6893 17.1738 11.9924C17.1561 12.2956 17.386 12.5507 17.6892 12.5684C17.9898 12.5836 18.2475 12.3512 18.2652 12.0531Z" fill="white"/>
<path d="M19.773 11.664C19.5785 11.6514 19.4092 11.803 19.4016 11.9975C19.3941 12.192 19.5406 12.3613 19.7351 12.3688C19.9296 12.3815 20.0939 12.2299 20.1065 12.0354C20.1166 11.8408 19.9701 11.6766 19.773 11.664Z" fill="white"/>
<path d="M18.3514 15.1655C18.1443 15.0316 17.8664 15.0872 17.73 15.2943C17.5961 15.5015 17.6516 15.7794 17.8588 15.9158C18.066 16.0497 18.3439 15.9941 18.4803 15.7869C18.6192 15.5798 18.5611 15.2994 18.3514 15.1655Z" fill="white"/>
<path d="M8.32934 18.4598C8.16513 18.3512 7.94787 18.3992 7.84177 18.5583C7.73313 18.7225 7.78113 18.9398 7.94029 19.0459C8.1045 19.1545 8.32176 19.1065 8.42787 18.9474C8.54155 18.7882 8.49355 18.5684 8.32934 18.4598Z" fill="white"/>
<path d="M15.7313 18.4269C15.5595 18.5128 15.4888 18.7301 15.5747 18.9019C15.6605 19.0737 15.8778 19.1444 16.0496 19.0585C16.2214 18.9726 16.2921 18.7604 16.2062 18.5861C16.1203 18.4093 15.9081 18.336 15.7313 18.4269C15.7363 18.4269 15.7313 18.4269 15.7313 18.4269Z" fill="white"/>
<path d="M11.6311 14.8623C11.9595 14.357 11.8206 13.6825 11.3153 13.3491C10.81 13.0206 10.1355 13.1596 9.80204 13.6648C9.46857 14.1701 9.61257 14.8446 10.1178 15.1781C10.2947 15.2943 10.5018 15.3549 10.714 15.3549C11.0879 15.36 11.429 15.173 11.6311 14.8623Z" fill="white"/>
<path d="M9.44871 16.5373C9.19861 16.373 8.85755 16.4413 8.69082 16.6939C8.52661 16.944 8.59482 17.285 8.84745 17.4518C9.09755 17.616 9.43861 17.5478 9.60534 17.2951C9.77461 17.0425 9.70387 16.7015 9.44871 16.5373Z" fill="white"/>
<path d="M11.9946 18.624C11.747 18.6114 11.5374 18.8008 11.5197 19.0484C11.502 19.296 11.6965 19.5057 11.9441 19.5234C12.1917 19.536 12.4014 19.3516 12.419 19.104C12.4317 18.8539 12.2422 18.6417 11.9946 18.624Z" fill="white"/>
<path d="M12.0001 15.8021C11.6464 15.7794 11.3432 16.0522 11.3255 16.4084C11.3028 16.7621 11.5756 17.0653 11.9319 17.0829C12.2855 17.1006 12.5887 16.8328 12.6064 16.4766C12.6266 16.1255 12.3538 15.8198 12.0001 15.8021Z" fill="white"/>
<path d="M14.6252 16.4943C14.3574 16.6333 14.2488 16.9617 14.3878 17.2295C14.5267 17.4973 14.8551 17.6059 15.1229 17.467C15.3907 17.3331 15.4993 17.0046 15.3654 16.7368C15.2265 16.4665 14.8981 16.3554 14.6252 16.4943Z" fill="white"/>
</svg>
