<svg width="24" height="24" viewBox="0 0 24 24" fill="none" xmlns="http://www.w3.org/2000/svg">
<path d="M15.7123 16.7729L7.22699 8.28765C6.93708 7.99773 6.93708 7.5169 7.22699 7.22699C7.51691 6.93707 7.99774 6.93707 8.28765 7.22699L16.7729 15.7123C17.0628 16.0022 17.0628 16.483 16.7729 16.7729C16.483 17.0628 16.0022 17.0628 15.7123 16.7729Z" fill="white"/>
<path d="M7.22706 16.7729C6.93715 16.483 6.93715 16.0022 7.22706 15.7123L15.7123 7.22699C16.0023 6.93707 16.4831 6.93707 16.773 7.22699C17.0629 7.5169 17.0629 7.99773 16.773 8.28765L8.28772 16.7729C7.99781 17.0628 7.51698 17.0628 7.22706 16.7729Z" fill="white"/>
</svg>
