<svg width="18" height="18" viewBox="0 0 18 18" fill="none" xmlns="http://www.w3.org/2000/svg">
<path fill-rule="evenodd" clip-rule="evenodd" d="M1.57129 9.24485C1.70182 4.946 5.11947 1.47394 9.39602 1.25689V2.10905C5.58957 2.32464 2.55233 5.41602 2.42265 9.24485H1.57129ZM1.5782 9.92558C1.79253 14.1454 5.17613 17.5289 9.39602 17.7431V16.8909C5.64621 16.6786 2.6429 13.6753 2.43036 9.92558H1.5782ZM3.79473 9.92558C4.00329 12.9231 6.39848 15.3183 9.39602 15.5268V14.6735C6.86868 14.4684 4.85314 12.4529 4.64809 9.92558H3.79473ZM5.8446 9.92558C6.04222 11.7945 7.52711 13.2794 9.39602 13.4771V9.92558H5.8446ZM9.39602 9.24485H5.83026C5.953 7.29655 7.47074 5.72684 9.39602 5.52322V9.24485ZM10.0768 9.92558V13.4914C12.0251 13.3687 13.5949 11.8509 13.7985 9.92558H10.0768ZM13.8128 9.24485H10.0768V5.50886C12.0822 5.63516 13.6865 7.23944 13.8128 9.24485ZM14.9949 9.92558C14.7852 12.5094 12.6833 14.5583 10.0768 14.6845V15.5363C13.1534 15.4084 15.6357 12.9796 15.8482 9.92558H14.9949ZM15.8577 9.24485H15.0059C14.8769 6.58131 12.7403 4.44467 10.0768 4.31567V3.46389C13.2103 3.59414 15.7274 6.11126 15.8577 9.24485ZM17.2122 9.92558C16.9965 13.7318 13.9053 16.7688 10.0768 16.8986V17.75C14.3754 17.6193 17.8472 14.2019 18.0644 9.92558H17.2122ZM18.0713 9.24485H17.2199C17.0883 5.35925 13.9623 2.23312 10.0768 2.10136V1.25C14.4323 1.38241 17.9391 4.88925 18.0713 9.24485ZM4.63706 9.24485H3.78528C3.91314 6.1682 6.34194 3.68581 9.39602 3.47334V4.32669C6.81218 4.53631 4.76328 6.63828 4.63706 9.24485Z" fill="#6ED5CE"/>
</svg>
