<svg width="37" height="36" viewBox="0 0 37 36" fill="none" xmlns="http://www.w3.org/2000/svg">
<path d="M30.3333 9C30.3333 9 26.8945 6.309 22.8333 6L22.4673 6.732C26.1393 7.6305 27.8238 8.91825 29.5833 10.5C26.5495 8.95125 23.554 7.5 18.3333 7.5C13.1125 7.5 10.117 8.95125 7.08325 10.5C8.84275 8.91825 10.8468 7.48875 14.1993 6.732L13.8333 6C9.5725 6.40275 6.33325 9 6.33325 9C6.33325 9 2.4925 14.5688 1.83325 25.5C5.70475 29.9648 11.5833 30 11.5833 30L12.8125 28.3612C10.726 27.636 8.3695 26.3408 6.33325 24C8.76175 25.8375 12.427 27.75 18.3333 27.75C24.2395 27.75 27.9048 25.8375 30.3333 24C28.297 26.3408 25.9405 27.636 23.854 28.3612L25.0833 30C25.0833 30 30.9618 29.9648 34.8333 25.5C34.174 14.5688 30.3333 9 30.3333 9ZM13.4583 22.5C12.0085 22.5 10.8333 21.1568 10.8333 19.5C10.8333 17.8432 12.0085 16.5 13.4583 16.5C14.908 16.5 16.0833 17.8432 16.0833 19.5C16.0833 21.1568 14.908 22.5 13.4583 22.5ZM23.2083 22.5C21.7585 22.5 20.5833 21.1568 20.5833 19.5C20.5833 17.8432 21.7585 16.5 23.2083 16.5C24.658 16.5 25.8333 17.8432 25.8333 19.5C25.8333 21.1568 24.658 22.5 23.2083 22.5Z" fill="#8C9EFF"/>
</svg>
