<svg width="24" height="24" viewBox="0 0 24 24" fill="none" xmlns="http://www.w3.org/2000/svg">
<path d="M11.8718 12.7681L11.8703 12.7673L3.04179 7.65813C3.0416 7.65803 3.04142 7.65792 3.04123 7.65781C2.92125 7.58742 2.88035 7.43428 2.95172 7.31193C3.02089 7.19336 3.16563 7.14772 3.30162 7.22402L11.7494 12.1127L11.9998 12.2577L12.2502 12.1128L20.6502 7.25279L20.6518 7.25189C20.7655 7.18554 20.9242 7.22244 20.9994 7.34457C21.0638 7.45823 21.0264 7.61516 20.905 7.68977L12.1611 12.7547C12.0766 12.7917 12.027 12.8 11.9998 12.8C11.9481 12.8 11.9069 12.7886 11.8718 12.7681Z" fill="#828282" stroke="#828282"/>
<path d="M12 21.86C11.8661 21.86 11.75 21.7439 11.75 21.61V12.54C11.75 12.4062 11.8661 12.29 12 12.29C12.1339 12.29 12.25 12.4062 12.25 12.54V21.61C12.25 21.7439 12.1339 21.86 12 21.86Z" fill="#828282" stroke="#828282"/>
<path d="M4.46315 18.773L4.46166 18.7722C3.83167 18.4246 3.24632 17.8148 2.81758 17.0844C2.3889 16.3541 2.14014 15.5432 2.14014 14.82V9.16998C2.14014 8.44703 2.38876 7.63869 2.8174 6.90967C3.24586 6.18094 3.83153 5.57003 4.4633 5.2169C4.46352 5.21678 4.46374 5.21666 4.46397 5.21653L9.80253 2.25731L9.80267 2.25723C10.3975 1.92726 11.1871 1.75 12.0001 1.75C12.8131 1.75 13.6028 1.92726 14.1976 2.25723L19.5371 5.22694L19.5386 5.22776C20.1686 5.57534 20.7539 6.18521 21.1827 6.9156C21.6113 7.64586 21.8601 8.45682 21.8601 9.17999V14.83C21.8601 15.553 21.6115 16.3613 21.1828 17.0903C20.7543 17.8191 20.1686 18.4301 19.5367 18.7832C19.5366 18.7833 19.5364 18.7834 19.5363 18.7835L14.1989 21.742C14.1988 21.7421 14.1987 21.7422 14.1985 21.7422C13.5973 22.0732 12.8144 22.25 12.0001 22.25C11.1861 22.25 10.4033 22.0733 9.80218 21.7425C9.80189 21.7423 9.80161 21.7422 9.80132 21.742L4.46315 18.773ZM10.0514 2.69069L10.0514 2.69066L10.0471 2.69303L4.70711 5.663L4.7071 5.663L4.705 5.66418C4.12653 5.98957 3.6171 6.55736 3.25446 7.17222C2.8919 7.78694 2.64014 8.50966 2.64014 9.17999V14.83C2.64014 15.4957 2.89217 16.2184 3.25422 16.8336C3.6164 17.449 4.12575 18.0199 4.705 18.3458L4.7071 18.3469L10.0457 21.3162C10.0461 21.3164 10.0464 21.3166 10.0468 21.3168C10.5988 21.6258 11.3176 21.7625 12.0001 21.7625C12.6826 21.7625 13.4014 21.6258 13.9534 21.3168C13.9538 21.3166 13.9542 21.3164 13.9546 21.3162L19.2931 18.3469L19.2952 18.3458C19.8737 18.0204 20.3831 17.4526 20.7458 16.8378C21.1083 16.223 21.3601 15.5003 21.3601 14.83V9.17999C21.3601 8.51428 21.1081 7.79161 20.746 7.17639C20.3838 6.56095 19.8745 5.99001 19.2952 5.66418L19.2931 5.663L13.9531 2.69303L13.9532 2.69301L13.9489 2.69069C13.3967 2.39061 12.689 2.24999 12.0001 2.24999C11.3112 2.24999 10.6035 2.39061 10.0514 2.69069Z" fill="#828282" stroke="#828282"/>
<path d="M16.7502 10.0201V9.73125L16.5 9.58695L7.38212 4.32818C7.38185 4.32802 7.38159 4.32787 7.38132 4.32771C7.25723 4.25476 7.22554 4.10292 7.28891 3.99729L7.28894 3.99731L7.29205 3.99198C7.36388 3.86886 7.50842 3.83202 7.62825 3.90192L7.63015 3.90302L17.1201 9.38306L17.1201 9.38308L17.1241 9.38535C17.2 9.4282 17.2502 9.51344 17.2502 9.60003V13.2601C17.2502 13.3652 17.1428 13.49 17.0002 13.49C16.8663 13.49 16.7502 13.3739 16.7502 13.24V10.0201Z" fill="#828282" stroke="#828282"/>
</svg>
