<svg width="24" height="24" viewBox="0 0 24 24" fill="none" xmlns="http://www.w3.org/2000/svg">
<path d="M19.7897 14.93C17.7297 16.98 14.7797 17.61 12.1897 16.8L7.47966 21.5C7.13966 21.85 6.46966 22.06 5.98966 21.99L3.80966 21.69C3.08966 21.59 2.41966 20.91 2.30966 20.19L2.00966 18.01C1.93966 17.53 2.16966 16.86 2.49966 16.52L7.19966 11.82C6.39966 9.22001 7.01966 6.27001 9.07966 4.22001C12.0297 1.27001 16.8197 1.27001 19.7797 4.22001C22.7397 7.17001 22.7397 11.98 19.7897 14.93Z" stroke="#BDBDBD" stroke-width="1.5" stroke-miterlimit="10" stroke-linecap="round" stroke-linejoin="round"/>
<path d="M6.88965 17.49L9.18965 19.79" stroke="#BDBDBD" stroke-width="1.5" stroke-miterlimit="10" stroke-linecap="round" stroke-linejoin="round"/>
<path d="M14.5 11C15.3284 11 16 10.3284 16 9.5C16 8.67157 15.3284 8 14.5 8C13.6716 8 13 8.67157 13 9.5C13 10.3284 13.6716 11 14.5 11Z" stroke="#BDBDBD" stroke-width="1.5" stroke-linecap="round" stroke-linejoin="round"/>
</svg>
