<svg width="24" height="24" viewBox="0 0 24 24" fill="none" xmlns="http://www.w3.org/2000/svg">
<path d="M17.6916 15.1393L17.6915 15.1393L17.6921 15.1452C17.7786 16.0976 18.6579 16.79 19.6 16.79H21.5C21.6339 16.79 21.75 16.9061 21.75 17.04V18.23C21.75 20.4546 19.9531 22.25 17.74 22.25H6.26C4.04614 22.25 2.25 20.4538 2.25 18.24V11.51C2.25 9.29615 4.04614 7.5 6.26 7.5H17.74C19.9539 7.5 21.75 9.29615 21.75 11.51V12.95C21.75 13.0839 21.6339 13.2 21.5 13.2H19.48C19.0062 13.2 18.554 13.3768 18.2229 13.72L18.2193 13.7236C17.8286 14.1025 17.6505 14.6199 17.6916 15.1393ZM21.25 17.8V17.3H20.75H19.6C18.3288 17.3 17.285 16.3587 17.1883 15.1985L17.1883 15.1985L17.1876 15.1914C17.1227 14.526 17.3652 13.8637 17.8606 13.3765L17.8606 13.3766L17.8669 13.3702C18.2911 12.9378 18.8617 12.7 19.48 12.7H20.75H21.25V12.2V11.51C21.25 9.57387 19.6761 8 17.74 8H6.26C4.32386 8 2.75 9.57387 2.75 11.51V18.24C2.75 20.1761 4.32386 21.75 6.26 21.75H17.74C19.6761 21.75 21.25 20.1761 21.25 18.24V17.8Z" fill="#292D32" stroke="#BDBDBD"/>
<path d="M12.1967 1.93773L12.1968 1.9377C12.8647 1.68519 13.6003 1.77616 14.1721 2.17886L14.1721 2.17887L14.1748 2.18074C14.7596 2.58686 15.1 3.2431 15.1 3.95005V7.75003C15.1 7.88389 14.9839 8.00003 14.85 8.00003C14.7161 8.00003 14.6 7.88389 14.6 7.75003V3.95005C14.6 3.40715 14.3404 2.90228 13.8833 2.58801C13.4331 2.27849 12.8808 2.20195 12.3613 2.40307L4.42328 5.4023L4.42328 5.4023L4.42128 5.40306C3.41983 5.78633 2.74 6.76069 2.74 7.84006V12.41H2.73986L2.74014 12.4219C2.74319 12.5499 2.64062 12.66 2.5 12.66C2.36614 12.66 2.25 12.5439 2.25 12.41V7.84006C2.25 6.55984 3.05964 5.39453 4.25741 4.93747C4.25765 4.93738 4.25789 4.93729 4.25814 4.9372L12.1967 1.93773Z" fill="#292D32" stroke="#BDBDBD"/>
<path d="M19.6005 17.7999C18.0905 17.7999 16.8105 16.6799 16.6905 15.2399C16.6105 14.4099 16.9105 13.5999 17.5105 13.0099C18.0205 12.4899 18.7205 12.2 19.4705 12.2H21.5505C22.5405 12.23 23.3005 13.0099 23.3005 13.9699V16.03C23.3005 16.99 22.5405 17.7699 21.5805 17.7999H19.6005ZM21.5305 13.7H19.4805C19.1305 13.7 18.8105 13.8299 18.5805 14.0699C18.2905 14.3499 18.1505 14.7299 18.1905 15.1099C18.2505 15.7699 18.8805 16.2999 19.6005 16.2999H21.5605C21.6905 16.2999 21.8105 16.18 21.8105 16.03V13.9699C21.8105 13.8199 21.6905 13.71 21.5305 13.7Z" fill="#BDBDBD"/>
<path d="M14 12.75H7C6.59 12.75 6.25 12.41 6.25 12C6.25 11.59 6.59 11.25 7 11.25H14C14.41 11.25 14.75 11.59 14.75 12C14.75 12.41 14.41 12.75 14 12.75Z" fill="#292D32"/>
</svg>
