<svg width="37" height="36" viewBox="0 0 37 36" fill="none" xmlns="http://www.w3.org/2000/svg">
<path d="M32.7333 25.425C32.4333 27 31.1583 28.2 29.5833 28.425C27.1083 28.8 22.9833 29.25 18.3333 29.25C13.7583 29.25 9.63325 28.8 7.08325 28.425C5.50825 28.2 4.23325 27 3.93325 25.425C3.63325 23.7 3.33325 21.15 3.33325 18C3.33325 14.85 3.63325 12.3 3.93325 10.575C4.23325 9 5.50825 7.8 7.08325 7.575C9.55825 7.2 13.6833 6.75 18.3333 6.75C22.9833 6.75 27.0333 7.2 29.5833 7.575C31.1583 7.8 32.4333 9 32.7333 10.575C33.0333 12.3 33.4083 14.85 33.4083 18C33.3333 21.15 33.0333 23.7 32.7333 25.425Z" fill="#FF3D00"/>
<path d="M15.3333 23.25V12.75L24.3333 18L15.3333 23.25Z" fill="white"/>
</svg>
